Patient4_TMGait_0pt3_01_left_23_GRF.mot
version=1
nRows=77
nColumns=19
inDegrees=no
endheader
time	F1x	F1y	F1z	M1x	M1y	M1z	F2x	F2y	F2z	M2x	M2y	M2z	EC1x	EC1y	EC1z	EC2x	EC2y	EC2z
43.06	-1.7978	4.4387	2.0502	-1.7878	-2.6732	0.38962	-20.0466	741.0588	-56.9648	243.029	68.1489	774.7832	-0.0592	0.0182	-0.0073	-0.0462	0.0165	0.9585
43.0793	-1.4333	3.1306	1.4214	-1.2378	-1.9217	0.46649	-22.0362	745.4589	-58.2788	243.8922	70.1924	777.2537	-0.0592	0.0182	-0.0073	-0.0462	0.0165	0.9585
43.0986	-1.0821	2.0017	0.90242	-0.7688	-1.2913	0.51138	-23.6552	753.0154	-59.3308	245.9218	71.8466	782.5383	-0.0592	0.0182	-0.0073	-0.0462	0.0165	0.9585
43.1179	-0.78593	1.1362	0.51313	-0.41191	-0.81658	0.53472	-24.6796	764.726	-59.8831	249.5736	72.7828	791.5759	-0.0592	0.0182	-0.0073	-0.0462	0.0165	0.9585
43.1371	-0.56186	0.53665	0.24694	-0.16583	-0.49599	0.5432	-24.9765	781.2133	-59.8132	255.1238	72.8145	804.9013	-0.0592	0.0182	-0.0073	-0.0462	0.0165	0.9585
43.1564	-0.41118	0.15346	0.084927	-0.010175	-0.30791	0.53517	-24.5517	802.2705	-59.1344	262.5013	71.9314	822.263	-0.0592	0.0182	-0.0073	-0.0462	0.0165	0.9585
43.1757	-0.3279	-0.089324	0.0054208	0.084562	-0.22243	0.49521	-23.5618	826.5082	-57.979	271.1752	70.2876	842.3185	-0.0592	0.0182	-0.0073	-0.0462	0.0165	0.9585
43.195	-0.30421	-0.27861	-0.015872	0.15359	-0.20712	0.39133	-22.237	851.2087	-56.5503	280.1311	68.1392	862.4818	-0.0592	0.0182	-0.0073	-0.0462	0.0165	0.9585
43.2143	-0.33361	-0.50695	-0.0034577	0.2377	-0.23536	0.17097	-20.7467	872.7577	-55.0327	288.0497	65.7121	879.3159	-0.0592	0.0182	-0.0073	-0.0462	0.0165	0.9585
43.2336	-0.40775	-0.86894	0.021206	0.37933	-0.28443	-0.24006	-19.1639	887.4957	-53.5201	293.6153	63.1242	889.3536	-0.0592	0.0182	-0.0073	-0.0462	0.0165	0.9585
43.2529	-0.51312	-1.4522	0.041908	0.61544	-0.33461	-0.92302	-17.47	892.5498	-52.0177	295.8067	60.3923	889.8911	-0.0592	0.0182	-0.0073	-0.0462	0.0165	0.9585
43.2721	-0.63071	-2.3235	0.044107	0.97237	-0.36665	-1.9383	-15.5499	886.5071	-50.4847	294.1258	57.4696	879.622	-0.0592	0.0182	-0.0073	-0.0462	0.0165	0.9585
43.2914	-0.73453	-3.5011	0.015379	1.4551	-0.35963	-3.296	-13.2427	869.6878	-48.8858	288.6836	54.3025	858.8979	-0.0592	0.0182	-0.0073	-0.0462	0.0165	0.9585
43.3107	-0.78949	-4.9243	-0.056997	2.035	-0.28687	-4.9228	-10.4127	843.9784	-47.2321	280.1331	50.8892	829.5781	-0.0592	0.0182	-0.0073	-0.0462	0.0165	0.9585
43.33	-0.74868	-6.4073	-0.18184	2.6331	-0.11962	-6.6162	-7.0018	812.3905	-45.5865	269.5121	47.2987	794.6035	-0.0592	0.0182	-0.0073	-0.0462	0.0165	0.9585
43.3493	-0.55142	-7.5881	-0.3601	3.0988	0.16892	-7.9858	-3.0468	778.4554	-44.035	258.0367	43.6503	757.4045	-0.0592	0.0182	-0.0073	-0.0462	0.0165	0.9585
43.3686	-0.1248	-7.8797	-0.5867	3.1899	0.60496	-8.4032	1.3578	745.6194	-42.6533	246.8941	40.0691	721.2997	-0.0592	0.0182	-0.0073	-0.0462	0.0165	0.9585
43.3879	0.60939	-6.4275	-0.84273	2.5561	1.2023	-6.9485	6.0904	716.7136	-41.4967	237.0619	36.6644	688.9914	-0.0592	0.0182	-0.0073	-0.0462	0.0165	0.9585
43.4071	1.725	-2.0942	-1.0873	0.73932	1.9444	-2.3949	10.999	693.5416	-40.6063	229.1671	33.5328	662.1894	-0.0592	0.0182	-0.0073	-0.0462	0.0165	0.9585
43.4264	3.26	6.4788	-1.2464	-2.8007	2.7604	6.7273	15.9019	676.672	-40.0075	223.4146	30.7567	641.4382	-0.0592	0.0182	-0.0073	-0.0462	0.0165	0.9585
43.4457	5.171	20.6971	-1.2017	-8.6162	3.5002	21.9534	20.5875	665.4486	-39.6983	219.5895	28.3951	626.1517	-0.0592	0.0182	-0.0073	-0.0462	0.0165	0.9585
43.465	7.2784	41.6857	-0.78377	-17.1388	3.9025	44.54	24.8119	658.1776	-39.643	217.1182	26.4804	614.8082	-0.0592	0.0182	-0.0073	-0.0462	0.0165	0.9585
43.4843	9.1849	69.7762	0.22812	-28.4728	3.5587	74.9103	28.3051	652.4376	-39.7792	215.1727	25.028	605.2524	-0.0592	0.0182	-0.0073	-0.0462	0.0165	0.9585
43.5036	10.1596	103.8903	2.072	-42.1478	1.9064	111.9904	30.7952	645.5233	-40.027	212.8228	24.0404	595.1	-0.0592	0.0182	-0.0073	-0.0462	0.0165	0.9585
43.5229	9.55	141.2292	4.9342	-57.0008	-1.5178	152.8582	32.0747	635.061	-40.2908	209.2487	23.4941	582.2743	-0.0592	0.0182	-0.0073	-0.0462	0.0165	0.9585
43.5421	7.4033	178.3715	8.7012	-71.6496	-6.5609	193.845	32.1085	619.6852	-40.4769	203.9746	23.3225	565.5799	-0.0592	0.0182	-0.0073	-0.0462	0.0165	0.9585
43.5614	4.1108	213.4695	12.9017	-85.3692	-12.549	232.9222	31.0883	599.4192	-40.5023	197.0022	23.4056	545.0204	-0.0592	0.0182	-0.0073	-0.0462	0.0165	0.9585
43.5807	-0.087276	246.7072	17.0931	-98.2504	-18.9027	270.3025	29.3618	575.36	-40.2744	188.711	23.5653	521.5188	-0.0592	0.0182	-0.0073	-0.0462	0.0165	0.9585
43.6	-4.9904	278.9242	20.9583	-110.6464	-25.2006	306.9122	27.3082	548.8841	-39.6925	179.5884	23.5991	496.2257	-0.0592	0.0182	-0.0073	-0.0462	0.0165	0.9585
43.6193	-10.2839	310.469	24.2949	-122.7084	-31.0985	343.0839	25.2178	521.0249	-38.6951	170.0099	23.3549	469.9812	-0.0592	0.0182	-0.0073	-0.0462	0.0165	0.9585
43.6386	-15.5126	340.9772	27.0359	-134.2972	-36.3404	378.3146	23.2415	492.3047	-37.3218	160.1728	22.8033	443.1788	-0.0592	0.0182	-0.0073	-0.0462	0.0165	0.9585
43.6579	-20.1579	369.6233	29.2125	-145.0916	-40.7497	411.5382	21.4023	462.9237	-35.6887	150.1583	22.0203	415.9427	-0.0592	0.0182	-0.0073	-0.0462	0.0165	0.9585
43.6771	-23.8118	395.4472	30.8965	-154.7259	-44.2323	441.5047	19.6584	433.0481	-33.903	140.0342	21.1006	388.3866	-0.0592	0.0182	-0.0073	-0.0462	0.0165	0.9585
43.6964	-26.2457	417.8704	32.139	-162.9946	-46.7409	467.395	17.977	403.0446	-32.0252	129.9338	20.1034	360.8172	-0.0592	0.0182	-0.0073	-0.0462	0.0165	0.9585
43.7157	-27.3932	436.9653	32.9723	-169.9501	-48.2754	489.1464	16.3876	373.4859	-30.0807	120.0572	19.0406	333.7303	-0.0592	0.0182	-0.0073	-0.0462	0.0165	0.9585
43.735	-27.3453	453.2331	33.4611	-175.8084	-48.9347	507.2366	14.9799	345.0266	-28.0831	110.6282	17.8974	307.6913	-0.0592	0.0182	-0.0073	-0.0462	0.0165	0.9585
43.7543	-26.3215	467.3293	33.7084	-180.8374	-48.9145	522.3848	13.8526	318.3291	-26.0516	101.8656	16.6611	283.2735	-0.0592	0.0182	-0.0073	-0.0462	0.0165	0.9585
43.7736	-24.6052	479.8743	33.8375	-185.2858	-48.4567	535.3225	13.0541	293.9885	-24.023	93.9568	15.3463	260.9911	-0.0592	0.0182	-0.0073	-0.0462	0.0165	0.9585
43.7929	-22.4782	491.3829	33.9494	-189.3594	-47.7767	546.6941	12.5581	272.4332	-22.0512	87.0266	14.0034	241.2181	-0.0592	0.0182	-0.0073	-0.0462	0.0165	0.9585
43.8121	-20.2013	502.2414	34.0932	-193.2127	-47.0245	557.0214	12.2728	253.8336	-20.1957	81.1091	12.707	224.1113	-0.0592	0.0182	-0.0073	-0.0462	0.0165	0.9585
43.8314	-17.9991	512.7026	34.2737	-196.9447	-46.2857	566.6783	12.0817	238.0071	-18.5092	76.1217	11.5319	209.5241	-0.0592	0.0182	-0.0073	-0.0462	0.0165	0.9585
43.8507	-16.0511	522.9412	34.4848	-200.6165	-45.6142	575.9455	11.8723	224.3551	-17.0241	71.8484	10.5313	196.9397	-0.0592	0.0182	-0.0073	-0.0462	0.0165	0.9585
43.87	-14.4962	533.1291	34.7473	-204.2813	-45.0755	585.0804	11.5563	211.94	-15.7417	67.967	9.722	185.5399	-0.0592	0.0182	-0.0073	-0.0462	0.0165	0.9585
43.8893	-13.417	543.5008	35.1157	-208.0146	-44.7501	594.368	11.0861	199.6798	-14.6322	64.1129	9.0827	174.3836	-0.0592	0.0182	-0.0073	-0.0462	0.0165	0.9585
43.9086	-12.8175	554.4377	35.6731	-211.9531	-44.722	604.2041	10.4408	186.602	-13.6463	59.9633	8.57	162.6205	-0.0592	0.0182	-0.0073	-0.0462	0.0165	0.9585
43.9279	-12.6307	566.5774	36.5269	-216.3388	-45.0775	615.222	9.6048	172.0747	-12.7292	55.3129	8.138	149.6918	-0.0592	0.0182	-0.0073	-0.0462	0.0165	0.9585
43.9471	-12.7493	580.8382	37.7951	-221.5257	-45.8998	628.3237	8.5628	155.9226	-11.8217	50.11	7.742	135.4343	-0.0592	0.0182	-0.0073	-0.0462	0.0165	0.9585
43.9664	-13.065	598.3212	39.5802	-227.9382	-47.2591	644.5898	7.3074	138.3934	-10.8711	44.4438	7.3443	120.0507	-0.0592	0.0182	-0.0073	-0.0462	0.0165	0.9585
43.9857	-13.514	620.1307	41.9468	-235.9957	-49.2035	665.1117	5.8428	120.0034	-9.8535	38.4917	6.9295	103.9806	-0.0592	0.0182	-0.0073	-0.0462	0.0165	0.9585
44.005	-14.0854	647.1068	44.9196	-246.0092	-51.7622	690.7167	4.2045	101.3589	-8.7672	32.4584	6.4921	87.7443	-0.0592	0.0182	-0.0073	-0.0462	0.0165	0.9585
44.0243	-14.7998	679.5229	48.4708	-258.069	-54.923	721.6534	2.4731	83.063	-7.6222	26.5458	6.0238	71.8634	-0.0592	0.0182	-0.0073	-0.0462	0.0165	0.9585
44.0436	-15.6634	716.8753	52.5011	-271.9744	-58.5921	757.367	0.77428	65.6818	-6.4352	20.9429	5.5056	56.8241	-0.0592	0.0182	-0.0073	-0.0462	0.0165	0.9585
44.0629	-16.611	757.8437	56.823	-287.2224	-62.5628	796.4447	-0.72588	49.7268	-5.2252	15.8189	4.9051	43.0614	-0.0592	0.0182	-0.0073	-0.0462	0.0165	0.9585
44.0821	-17.4771	800.3235	61.1773	-303.0182	-66.5197	836.6602	-1.8375	35.6406	-4.0253	11.3161	4.193	30.9484	-0.0592	0.0182	-0.0073	-0.0462	0.0165	0.9585
44.1014	-18.0123	841.4416	65.2732	-318.2798	-70.0837	875.0274	-2.4023	23.7947	-2.8938	7.5481	3.3706	20.7942	-0.0592	0.0182	-0.0073	-0.0462	0.0165	0.9585
44.1207	-17.9401	877.6578	68.8281	-331.6721	-72.8808	907.9387	-2.4051	14.4728	-1.9039	4.5961	2.4969	12.829	-0.0592	0.0182	-0.0073	-0.0462	0.0165	0.9585
44.14	-17.0572	905.0983	71.6079	-341.7313	-74.6176	931.5372	-2.0579	7.7476	-1.1153	2.4741	1.6898	7.1042	-0.0592	0.0182	-0.0073	-0.0462	0.0165	0.9585
44.1593	-15.3031	920.1895	73.4543	-347.1072	-75.1312	942.3614	-1.5747	3.3287	-0.54257	1.0846	1.028	3.3583	-0.0592	0.0182	-0.0073	-0.0462	0.0165	0.9585
44.1786	-12.7319	920.4723	74.283	-346.8745	-74.3779	938.1283	-1.0897	0.69826	-0.16342	0.2598	0.53417	1.1278	-0.0592	0.0182	-0.0073	-0.0462	0.0165	0.9585
44.1979	-9.4813	905.2647	74.066	-340.7901	-72.4004	918.3494	-0.67652	-0.7247	0.066871	-0.1879	0.19401	-0.10456	-0.0592	0.0182	-0.0073	-0.0462	0.0165	0.9585
44.2171	-5.7592	875.939	72.8429	-329.4004	-69.3294	884.5639	-0.36047	-1.4851	0.19737	-0.43417	-0.028258	-0.82216	-0.0592	0.0182	-0.0073	-0.0462	0.0165	0.9585
44.2364	-1.815	835.795	70.7444	-313.9861	-65.3909	840.1703	-0.13469	-2.0332	0.27215	-0.62365	-0.17616	-1.4285	-0.0592	0.0182	-0.0073	-0.0462	0.0165	0.9585
44.2557	2.0945	789.5945	67.9836	-296.3781	-60.8868	789.9386	0.025018	-2.6913	0.32501	-0.85939	-0.28813	-2.2106	-0.0592	0.0182	-0.0073	-0.0462	0.0165	0.9585
44.275	5.7541	742.874	64.8199	-278.6931	-56.1397	739.3084	0.15098	-3.6343	0.37585	-1.1954	-0.39143	-3.3207	-0.0592	0.0182	-0.0073	-0.0462	0.0165	0.9585
44.2943	9.0666	701.1295	61.5153	-263.0255	-51.4253	693.5795	0.27908	-4.8656	0.43495	-1.629	-0.50776	-4.7485	-0.0592	0.0182	-0.0073	-0.0462	0.0165	0.9585
44.3136	12.1025	669.0184	58.3069	-251.1455	-46.9248	657.1429	0.44619	-6.1818	0.50164	-2.0888	-0.64712	-6.2731	-0.0592	0.0182	-0.0073	-0.0462	0.0165	0.9585
44.3329	15.0952	649.7246	55.3956	-244.2546	-42.7189	632.8916	0.68324	-7.1278	0.55889	-2.4174	-0.80015	-7.4078	-0.0592	0.0182	-0.0073	-0.0462	0.0165	0.9585
44.3521	18.3812	644.4933	52.9519	-242.8078	-38.8189	621.8142	1.0112	-6.9497	0.57188	-2.3556	-0.9319	-7.3549	-0.0592	0.0182	-0.0073	-0.0462	0.0165	0.9585
44.3714	22.2894	652.3884	51.1266	-246.4209	-35.2226	622.8372	1.4316	-4.5671	0.48658	-1.5329	-0.97661	-4.9692	-0.0592	0.0182	-0.0073	-0.0462	0.0165	0.9585
44.3907	27.0135	670.3565	50.0214	-253.8931	-31.9412	632.9771	1.9102	1.4134	0.22849	0.52855	-0.83312	1.2351	-0.0592	0.0182	-0.0073	-0.0462	0.0165	0.9585
44.41	32.5241	693.6223	49.6393	-263.3555	-28.9948	647.7853	2.3615	12.5997	-0.29456	4.381	-0.36222	12.9855	-0.0592	0.0182	-0.0073	-0.0462	0.0165	0.9585
44.4293	38.4765	716.2829	49.8992	-272.49	-26.4592	661.9691	2.6321	30.5821	-1.1809	10.5709	0.60733	32.0114	-0.0592	0.0182	-0.0073	-0.0462	0.0165	0.9585
44.4486	44.1616	732.0458	50.6828	-278.8128	-24.5253	670.1088	2.4832	56.5176	-2.5138	19.4938	2.2572	59.6094	-0.0592	0.0182	-0.0073	-0.0462	0.0165	0.9585
44.4679	48.6994	735.3965	51.7546	-280.1529	-23.3547	667.6616	1.4525	90.5876	-4.3306	31.2083	4.7911	96.0553	-0.0592	0.0182	-0.0073	-0.0462	0.0165	0.9585
44.4871	51.3952	722.9719	52.6936	-275.2147	-22.881	652.0386	-1.2788	131.457	-6.5906	45.2479	8.4363	140.0191	-0.0592	0.0182	-0.0073	-0.0462	0.0165	0.9585
44.5064	51.9849	694.3846	53.0112	-263.9041	-22.8099	623.1689	-6.0266	176.232	-9.2257	60.6003	13.2089	188.4858	-0.0592	0.0182	-0.0073	-0.0462	0.0165	0.9585
44.5257	50.664	652.0864	52.381	-247.2541	-22.7934	583.2746	-12.2574	221.9226	-12.2507	76.21	18.9188	238.2306	-0.0592	0.0182	-0.0073	-0.0462	0.0165	0.9585
